<svg id="Capa_1" data-name="Capa 1" xmlns="http://www.w3.org/2000/svg" viewBox="0 0 469.57 270.21"><defs><style>.cls-1{fill:#80bd01;}.cls-2{fill:#61dafb;}.cls-3{fill:#fff;opacity:0.5;}</style></defs><title>logo</title><path d="M469,1.1c-.91-.87-2-.91-14.51-1.06-7.38-.1-25,0-39.08.39s-37.25.71-51.47,1c-26.15.43-32.9.86-47.89,2.87-16.37,2.26-37.73,6.18-49.56,9.11-14.7,3.68-16,3.87-28,4.16-13.22.29-18-.24-31.17-3.4A532.09,532.09,0,0,0,139.08,2.58c-4.93-.53-16.81-.91-35.44-1.2C88.23,1.14,66.48.71,55.28.43c-25.14-.58-51-.58-52.72,0S0,3.2.45,5.31c.77,3.88,4.74,17.52,5.7,19.78a14.45,14.45,0,0,0,7.33,7.52A17.21,17.21,0,0,1,18,35.86c2.87,3.45,7.42,13.89,12.11,27.63C37,83.79,41,92.56,47.43,101.46c12.3,17.14,30.55,24.81,63.68,26.77,23.61,1.44,46.64-3.78,62.25-14.12,9.72-6.42,18.82-19.26,30.94-43.53,2.49-5,5.17-10.49,5.94-12.21,2-4.65,6.7-12.22,8.47-13.7,5.17-4.4,16.57-6.13,25-3.83,3.49.91,8.13,3.5,9.43,5.27,2.3,3.06,5,8.09,11.16,20.4,12.78,25.71,22.21,39.89,30.74,46.3,9.19,7,22.26,11.78,38.88,14.37,6.9,1.1,29.5,1.2,37.35.24,16.09-2.06,28.92-6.23,38.36-12.55,4.21-2.82,11.1-10,14.46-15,6.13-9.09,9.81-17.47,16.61-37.45,4.69-13.93,8.86-23.17,11.83-26.52a23,23,0,0,1,5.12-3.79c5.27-2.87,6.61-5.31,10.59-19.92C470.25,4.92,470.39,2.44,469,1.1Zm-273,40.41c-.91,14.08-10.34,39.94-19.49,53.68-4,6-8.43,10.3-13.46,13.12C149,116.16,129,120.14,110.59,118.75c-21.55-1.68-33.38-6.51-45.45-18.53-10.39-10.39-14.36-20-20.21-49-1.81-9.25-2.24-12.26-2.29-16.77,0-4.83.09-5.79,1.1-8C47.14,18.86,58.1,13.74,74.67,12c8-.87,8.76-.91,33.28-.77,18.2.1,25.19.29,30.17.91,17.58,2.1,31,5.36,41.57,10.1,1.62.72,2.87,1.49,2.72,1.68s9,9.43,12.17,12.11l1.63,1.35ZM428,34c0,7.56-5.7,35-9.34,45.34-3.06,8.77-6.7,14.61-12.6,20.5-13.69,13.55-29.49,19-54.63,19.1-22.17,0-41.33-6.08-51.52-16.47-9.63-9.77-20.17-33-24.33-53.63-.86-4.36-1.73-12.31-1.25-11.2.15.28,1.63-.77,3.31-2.4s5.17-5,7.75-7.47a35.76,35.76,0,0,0,4.6-4.93c0-.24.1-.29.38-.1s.48.1.48-.19c0-1.44,17.62-6.7,28.74-8.62,14.84-2.54,20.92-2.87,48.84-2.68,19.39.1,25.28.29,29.69.91C409.34,13.74,418,16.85,422.7,21a17,17,0,0,1,3.78,5.17C427.92,29.11,428.06,29.68,428,34Z" transform="translate(-0.34 0)"/><path class="cls-1" d="M35.21,270.21a28.72,28.72,0,0,1-8.41-1.13,25.37,25.37,0,0,1-6.6-3.1,62.41,62.41,0,0,1-5.73-4.33L20.15,255a30.68,30.68,0,0,0,6.91,4.85,17.32,17.32,0,0,0,7.85,1.76,19.06,19.06,0,0,0,8.2-1.6,11.59,11.59,0,0,0,5.06-4.39,13,13,0,0,0,1.8-6.5l.11-11.56.82,1.86a16.31,16.31,0,0,1-6.71,7.48,21.66,21.66,0,0,1-11.76,3,20.36,20.36,0,0,1-10.74-3,22.67,22.67,0,0,1-7.94-8.1,22.31,22.31,0,0,1-3-11.51,22.44,22.44,0,0,1,11.31-20,21.83,21.83,0,0,1,11.09-2.94,23.05,23.05,0,0,1,10.37,2.32,16.66,16.66,0,0,1,7,5.94l-.62,1.75.93-8.26h8.88v43a19.55,19.55,0,0,1-3,10.53,21,21,0,0,1-8.46,7.59A28.23,28.23,0,0,1,35.21,270.21Zm-14.75-43a14.55,14.55,0,0,0,2,7.54,14.91,14.91,0,0,0,5.36,5.37,14.45,14.45,0,0,0,7.38,2,16.31,16.31,0,0,0,6.87-1.4,14.35,14.35,0,0,0,5.11-3.87,14.52,14.52,0,0,0,2.89-5.47v-8.56a13,13,0,0,0-3.1-5.37,16.1,16.1,0,0,0-5.16-3.61,15.91,15.91,0,0,0-6.61-1.34,14.74,14.74,0,0,0-12.74,7.12A14.39,14.39,0,0,0,20.46,227.17Z" transform="translate(-0.34 0)"/><path class="cls-1" d="M96.11,250A25.42,25.42,0,0,1,83.52,247a20.85,20.85,0,0,1-8.16-8,23.42,23.42,0,0,1-2.89-11.71,21.12,21.12,0,0,1,3.25-11.46,24.55,24.55,0,0,1,8.62-8.26,23.57,23.57,0,0,1,12-3.09q8.47,0,14,4.95T118,223.05l-35.3,12.38-2.27-5.68,28.8-10.63-2,1.45a13.91,13.91,0,0,0-4.12-5.88,11.19,11.19,0,0,0-7.54-2.48,13,13,0,0,0-11.76,7,15.69,15.69,0,0,0-1.76,7.58,16.2,16.2,0,0,0,1.81,7.74,13.21,13.21,0,0,0,5.05,5.32,14.34,14.34,0,0,0,7.38,1.91,14.86,14.86,0,0,0,5.42-1,24.23,24.23,0,0,0,5-2.69l4.33,7.12a29.16,29.16,0,0,1-7.17,3.51A24.13,24.13,0,0,1,96.11,250Z" transform="translate(-0.34 0)"/><path class="cls-1" d="M134,187.44h9.81v19h11.66V214H143.79v35H134V214h-7.74v-7.53H134Z" transform="translate(-0.34 0)"/><path class="cls-2" d="M224.19,243.38a46.37,46.37,0,0,1-5.06,2.79,37.52,37.52,0,0,1-7.48,2.58,40.75,40.75,0,0,1-9.44,1,40.17,40.17,0,0,1-15.54-3.1,35.07,35.07,0,0,1-19.35-20.07,40.07,40.07,0,0,1-2.58-14.4,43.12,43.12,0,0,1,2.68-15.43,36,36,0,0,1,7.69-12.28,35.29,35.29,0,0,1,11.77-8.1,37.19,37.19,0,0,1,14.81-2.89,38.85,38.85,0,0,1,12.18,1.8,46.51,46.51,0,0,1,9.39,4.18l-4,9.5a40.26,40.26,0,0,0-7.54-4,25.91,25.91,0,0,0-20,.31,26.85,26.85,0,0,0-8.57,6.09,29,29,0,0,0-7.94,20.33,32.36,32.36,0,0,0,1.9,11.2,27,27,0,0,0,5.47,9.08,24.87,24.87,0,0,0,8.62,6,28.48,28.48,0,0,0,11.36,2.17,27.13,27.13,0,0,0,10.11-1.76A31.05,31.05,0,0,0,220,234.5Z" transform="translate(-0.34 0)"/><path class="cls-2" d="M234.82,227.17a22.29,22.29,0,0,1,3-11.55,21.94,21.94,0,0,1,8.47-8.16,25.12,25.12,0,0,1,12.33-3,24.27,24.27,0,0,1,12.18,3,21.5,21.5,0,0,1,8.2,8.16,24.11,24.11,0,0,1,0,23.11,21.76,21.76,0,0,1-8.2,8.21,24.08,24.08,0,0,1-12.28,3,25.58,25.58,0,0,1-12.23-2.83,21.52,21.52,0,0,1-8.41-8A22.7,22.7,0,0,1,234.82,227.17Zm9.7.11a15.15,15.15,0,0,0,1.86,7.48,14.49,14.49,0,0,0,5,5.32,13.73,13.73,0,0,0,14.14,0,14.07,14.07,0,0,0,4.91-5.32,16.46,16.46,0,0,0,0-15,14.49,14.49,0,0,0-4.91-5.36,12.76,12.76,0,0,0-7.12-2,12.59,12.59,0,0,0-7.07,2.06,14.66,14.66,0,0,0-4.95,5.42A15.22,15.22,0,0,0,244.52,227.28Z" transform="translate(-0.34 0)"/><path class="cls-2" d="M312.23,250a20.13,20.13,0,0,1-18.32-10.88,24.7,24.7,0,0,1-2.84-12,23.55,23.55,0,0,1,3-12.18,20.3,20.3,0,0,1,8.05-7.74,23.83,23.83,0,0,1,11.35-2.68,22.32,22.32,0,0,1,9.66,2.17,17.37,17.37,0,0,1,7.17,6l-.52,3.41v-47h9.6V249h-9.6V238.32l1.14,2.68a24.45,24.45,0,0,1-7.9,6.46A22.82,22.82,0,0,1,312.23,250Zm3-8.15a15.2,15.2,0,0,0,6.76-1.44,15,15,0,0,0,4.95-3.87,14.17,14.17,0,0,0,2.84-5.73v-8.16a13.3,13.3,0,0,0-2.94-5.47,14.52,14.52,0,0,0-5.06-3.66,16.12,16.12,0,0,0-6.55-1.29,14.25,14.25,0,0,0-7.12,1.86,14.1,14.1,0,0,0-5.27,5.16,15.75,15.75,0,0,0,0,15.22,15.15,15.15,0,0,0,5.27,5.37A13.44,13.44,0,0,0,315.22,241.83Z" transform="translate(-0.34 0)"/><path class="cls-2" d="M375.91,250a25.46,25.46,0,0,1-12.6-2.94,20.82,20.82,0,0,1-8.15-8,23.32,23.32,0,0,1-2.89-11.71,21,21,0,0,1,3.25-11.46,24.55,24.55,0,0,1,8.62-8.26,23.57,23.57,0,0,1,12-3.09,20.38,20.38,0,0,1,14,4.95q5.57,5,7.64,13.63l-35.3,12.38-2.27-5.68L389,219.12l-2,1.45a13.84,13.84,0,0,0-4.13-5.88,11.15,11.15,0,0,0-7.53-2.48,13,13,0,0,0-11.77,7,15.68,15.68,0,0,0-1.75,7.58,16.2,16.2,0,0,0,1.81,7.74,13.21,13.21,0,0,0,5.05,5.32,14.34,14.34,0,0,0,7.38,1.91,14.86,14.86,0,0,0,5.42-1,24.49,24.49,0,0,0,5-2.69l4.33,7.12a29.16,29.16,0,0,1-7.17,3.51A24.13,24.13,0,0,1,375.91,250Z" transform="translate(-0.34 0)"/><path class="cls-2" d="M411.92,240.49h41.7V249h-41.7Z" transform="translate(-0.34 0)"/><path class="cls-2" d="M196,37.35l-.29,4.16c-.91,14.08-10.34,39.94-19.49,53.68-4,6-8.43,10.3-13.45,13.12-12.62,7.11-30.23,11-47.14,10.69-1.76,0-3.51-.12-5.25-.25-1.41-.11-2.78-.23-4.11-.37-2.87-.3-5.56-.67-8.1-1.11-14.24-2.5-23.66-7.52-33.23-17a57.09,57.09,0,0,1-5.8-6.66c-6.35-8.64-9.8-19.44-14.41-42.37-1.82-9.25-2.25-12.26-2.3-16.77,0-4.83.1-5.79,1.1-8C46.94,18.86,57.91,13.74,74.48,12c6.65-.72,8.31-.87,23.07-.82,2.87,0,6.22,0,10.21,0,18.19.1,25.18.29,30.16.91q4.53.54,8.7,1.19c4.64.72,8.95,1.53,13,2.46q4.5,1,8.52,2.25a93.82,93.82,0,0,1,11.38,4.2c1.63.72,2.87,1.49,2.73,1.68s8.95,9.43,12.16,12.11Z" transform="translate(-0.34 0)"/><path class="cls-3" d="M146.62,13.3l-48.44,104c-14.24-2.5-23.66-7.52-33.23-17a57.09,57.09,0,0,1-5.8-6.66l38.4-82.41c2.87,0,6.22,0,10.21,0,18.19.1,25.18.29,30.16.91Q142.45,12.65,146.62,13.3Z" transform="translate(-0.34 0)"/><path class="cls-3" d="M168.11,18,115.64,119c-1.76,0-3.51-.12-5.25-.25-1.41-.11-2.78-.23-4.11-.37L159.59,15.76Q164.09,16.79,168.11,18Z" transform="translate(-0.34 0)"/><path class="cls-2" d="M427.82,34c-.05,7.56-5.7,35-9.34,45.34-3.06,8.77-6.7,14.61-12.59,20.5-13.7,13.55-29.5,19-54.64,19.1-1.45,0-2.9,0-4.32-.07q-4.79-.16-9.32-.71c-3-.36-5.83-.83-8.59-1.42-12.43-2.65-22.72-7.57-29.29-14.27a60.54,60.54,0,0,1-8.63-11.84,145.75,145.75,0,0,1-15.7-41.79c-.86-4.36-1.72-12.31-1.24-11.2.14.28,1.63-.77,3.3-2.4s5.17-5,7.76-7.47a37.31,37.31,0,0,0,4.6-4.93c-.05-.24.09-.29.38-.1s.47.1.47-.19c0-1.44,17.63-6.7,28.74-8.62,2.93-.5,5.53-.92,8-1.26,10.08-1.39,18.43-1.57,40.82-1.42l9.88.07c7.13.07,11.59.18,14.79.37,2.08.12,3.63.27,5,.47s2.76.43,4.07.68c9.23,1.74,16.35,4.58,20.49,8.23a17,17,0,0,1,3.78,5.17C427.72,29.11,427.87,29.68,427.82,34Z" transform="translate(-0.34 0)"/><path class="cls-3" d="M378.13,11.27,329,116.69c-12.43-2.65-22.72-7.57-29.29-14.27a60.54,60.54,0,0,1-8.63-11.84l36.33-78c10.08-1.39,18.43-1.57,40.82-1.42Z" transform="translate(-0.34 0)"/><path class="cls-3" d="M402,12.79l-55.08,106q-4.79-.16-9.32-.71L392.92,11.64c2.08.12,3.63.27,5,.47S400.7,12.54,402,12.79Z" transform="translate(-0.34 0)"/></svg>